<svg id="visual" viewBox="0 0 2600 400" width="2600" height="400" xmlns="http://www.w3.org/2000/svg" xmlns:xlink="http://www.w3.org/1999/xlink" version="1.1"><path d="M0 77L236 41L473 29L709 57L945 33L1182 53L1418 49L1655 81L1891 29L2127 45L2364 69L2600 77L2600 0L2364 0L2127 0L1891 0L1655 0L1418 0L1182 0L945 0L709 0L473 0L236 0L0 0Z" fill="#697b68"></path><path d="M0 229L236 141L473 201L709 241L945 133L1182 129L1418 173L1655 169L1891 93L2127 169L2364 129L2600 201L2600 75L2364 67L2127 43L1891 27L1655 79L1418 47L1182 51L945 31L709 55L473 27L236 39L0 75Z" fill="#5c6e5d"></path><path d="M0 261L236 205L473 245L709 273L945 193L1182 193L1418 229L1655 221L1891 153L2127 205L2364 153L2600 241L2600 199L2364 127L2127 167L1891 91L1655 167L1418 171L1182 127L945 131L709 239L473 199L236 139L0 227Z" fill="#4f6153"></path><path d="M0 305L236 289L473 301L709 325L945 289L1182 269L1418 301L1655 277L1891 249L2127 245L2364 245L2600 281L2600 239L2364 151L2127 203L1891 151L1655 219L1418 227L1182 191L945 191L709 271L473 243L236 203L0 259Z" fill="#435449"></path><path d="M0 401L236 401L473 401L709 401L945 401L1182 401L1418 401L1655 401L1891 401L2127 401L2364 401L2600 401L2600 279L2364 243L2127 243L1891 247L1655 275L1418 299L1182 267L945 287L709 323L473 299L236 287L0 303Z" fill="#37483f"></path></svg>